<svg width="323" height="218" viewBox="0 0 323 218" fill="none" xmlns="http://www.w3.org/2000/svg">
<path d="M54.5 14.5H315.5V216.5H54.5V14.5Z" fill="black" stroke="black" stroke-width="3"/>
<path d="M229.278 106.096C230.407 113.814 230.06 122.489 228.236 132.122C226.427 141.853 223.53 151.058 219.546 159.735C215.576 168.511 210.375 176.125 203.943 182.578C197.526 189.129 190.619 193.025 183.222 194.266C177.699 195.193 170.137 191.849 160.535 184.235C151.046 176.704 142.433 167.555 134.694 156.79C126.955 146.025 122.535 136.883 121.434 129.363C121.188 127.681 122.96 124.596 126.749 120.107C130.651 115.702 133.638 113.325 135.709 112.978C139.752 112.299 151.386 113.084 170.61 115.332C189.947 117.663 203.162 118.893 210.253 119.02C212.099 115.061 214.475 111.621 217.382 108.7C220.388 105.763 223.025 104.104 225.293 103.723C227.66 103.326 228.988 104.117 229.278 106.096ZM184.237 172.199C187.392 171.669 191.107 168.055 195.381 161.357C199.754 154.642 203.101 147.136 205.424 138.839C197.94 139.486 181.496 137.937 156.091 134.192C154.751 134.011 152.537 133.724 149.448 133.33C146.472 133.018 144.462 132.747 143.418 132.517C148.092 141.667 155.028 150.742 164.226 159.742C173.523 168.725 180.193 172.877 184.237 172.199Z" fill="white"/>
<path d="M103.689 46.2021L103.652 45.8038C103.378 42.8833 105.687 38.9474 110.579 33.9962C115.603 29.0307 120.104 26.334 124.081 25.9061C128.19 25.4639 146.713 27.3598 179.65 31.5935C212.599 35.96 233.315 37.6868 241.8 36.774C247.103 36.2035 249.935 37.8432 250.296 41.6929C250.595 44.8789 247.774 49.071 241.834 54.2691C236.027 59.453 230.273 62.3515 224.573 62.9648C221.126 63.3356 212.148 62.5583 197.64 60.6329C213.111 69.9638 226.134 78.8877 236.708 87.4046C247.415 95.9072 252.93 101.884 253.254 105.336C253.59 108.92 252.402 112.668 249.689 116.581C247.109 120.479 244.692 122.549 242.439 122.791C240.317 123.02 235.758 120.091 228.759 114.005C221.761 107.919 212.889 100.426 202.145 91.5253C191.401 82.6245 181.531 75.9091 172.536 71.3791C162.329 72.4773 152.609 79.49 143.377 92.4173C140.664 96.3296 137.931 101.451 135.177 107.781C132.556 114.097 130.208 119.043 128.133 122.619C126.203 126.313 124.045 128.288 121.659 128.545C114.898 129.272 111.069 124.857 110.172 115.299C109.276 105.741 112.155 95.0388 118.81 83.1933C125.598 71.3336 135.166 61.9906 147.514 55.1644C137.38 52.7683 130.023 51.4144 125.44 51.1029C120.991 50.777 118.018 50.4934 116.523 50.2521C115.04 50.1434 113.822 50.0063 112.869 49.8406C112.048 49.6607 111.096 49.4951 110.01 49.3437C108.925 49.1922 108.038 49.0195 107.35 48.8253C106.795 48.6168 106.24 48.4084 105.685 48.1999C104.417 47.5318 103.752 46.8658 103.689 46.2021Z" fill="white"/>
</svg>
